<?xml version="1.0" standalone="no"?>
<!DOCTYPE svg PUBLIC "-//W3C//DTD SVG 20010904//EN"
 "http://www.w3.org/TR/2001/REC-SVG-20010904/DTD/svg10.dtd">
<svg version="1.0" xmlns="http://www.w3.org/2000/svg"
 width="16.000000pt" height="16.000000pt" viewBox="0 0 16.000000 16.000000"
 preserveAspectRatio="xMidYMid meet">
<metadata>
Created by potrace 1.11, written by Peter Selinger 2001-2013
</metadata>
<g transform="translate(0.000000,16.000000) scale(0.002286,-0.002286)"
fill="#000000" stroke="none">
<path d="M11 3935 l0 -1973 528 0 529 0 0 686 c0 501 -3 689 -12 694 -8 6 -7
8 2 8 6 0 12 7 12 15 0 11 12 15 43 16 23 1 54 2 69 3 15 2 25 -1 21 -6 -7
-13 27 -88 40 -88 6 0 7 -3 4 -6 -8 -8 24 -64 35 -64 4 0 8 -5 8 -11 0 -12 59
-101 74 -111 6 -4 8 -8 4 -8 -4 0 31 -57 78 -126 46 -70 84 -130 84 -135 0 -5
5 -9 10 -9 6 0 10 -4 10 -9 0 -18 147 -231 155 -224 4 5 5 3 2 -4 -8 -13 119
-209 133 -206 5 2 7 -3 4 -11 -3 -7 2 -20 10 -29 9 -9 16 -20 16 -26 0 -5 8
-15 18 -20 9 -6 13 -11 7 -11 -7 0 -7 -3 0 -8 6 -4 15 -16 22 -27 6 -11 16
-19 23 -17 6 1 9 -2 5 -8 -6 -10 97 -177 118 -191 5 -3 9 -10 9 -15 1 -5 7
-19 15 -31 14 -21 23 -23 95 -22 85 1 103 -5 76 -25 -9 -7 -14 -17 -10 -22 9
-13 42 -26 42 -16 0 4 19 19 43 34 49 31 16 29 655 29 l363 0 -30 52 c-17 29
-35 51 -41 50 -5 -2 -9 0 -9 5 3 18 -2 33 -9 28 -4 -2 -9 5 -9 16 -1 12 -6 24
-10 27 -10 8 -73 100 -73 107 0 17 -63 93 -72 88 -7 -5 -8 -2 -4 5 5 7 -21 56
-64 122 l-73 109 33 63 c18 34 36 64 39 67 3 3 13 19 21 35 8 17 27 50 41 75
67 112 80 136 86 153 3 9 9 17 14 17 5 0 9 7 9 15 0 8 5 15 12 15 6 0 9 3 5 6
-3 4 7 26 23 50 17 23 30 46 30 51 0 4 13 23 29 41 32 39 35 37 101 -58 13
-19 27 -37 30 -40 3 -3 25 -32 50 -65 25 -33 47 -62 50 -65 3 -3 18 -23 35
-45 16 -22 35 -44 42 -48 7 -4 13 -13 13 -19 0 -6 8 -18 18 -27 9 -9 36 -41
59 -71 23 -30 53 -67 65 -81 13 -15 34 -41 48 -59 14 -19 32 -40 41 -49 8 -9
51 -59 94 -111 44 -52 84 -100 90 -106 5 -6 26 -30 45 -53 19 -24 51 -60 70
-81 19 -21 49 -54 65 -73 229 -261 440 -460 630 -592 31 -22 63 -46 70 -52 8
-7 18 -13 23 -13 5 0 15 -6 21 -14 7 -8 26 -21 44 -30 18 -9 50 -27 72 -40
121 -74 375 -180 480 -202 11 -2 34 -7 50 -11 17 -3 37 -7 45 -8 8 -1 42 -7
75 -13 101 -19 332 -28 430 -17 22 2 65 7 95 10 50 5 91 11 145 19 11 2 27 6
35 9 8 4 26 8 40 11 69 12 265 74 315 100 17 9 33 16 37 16 14 0 127 72 131
84 3 7 1 19 -4 27 -7 12 -14 11 -41 -5 -110 -62 -138 -76 -138 -69 0 4 -4 3
-8 -2 -7 -11 -154 -68 -207 -81 -16 -4 -34 -8 -40 -10 -219 -54 -492 -64 -680
-24 -27 6 -56 11 -62 12 -7 1 -13 5 -13 10 0 5 -5 6 -10 3 -6 -4 -17 -1 -25 5
-8 7 -15 10 -15 6 0 -3 -24 4 -52 15 -79 31 -218 102 -218 111 0 4 -3 7 -7 6
-7 -2 -119 67 -133 82 -3 3 -25 21 -50 40 -59 46 -64 49 -109 90 -21 19 -65
58 -97 85 -172 148 -642 621 -735 740 -13 16 -35 41 -49 56 -14 14 -32 35 -40
45 -8 11 -35 44 -60 74 -25 30 -52 64 -62 75 -9 11 -45 56 -79 100 -35 44 -66
82 -69 85 -7 6 -130 165 -190 245 -25 33 -47 62 -50 65 -3 3 -17 21 -30 40
-13 19 -27 37 -30 40 -30 28 -31 39 -3 64 15 15 48 38 73 53 25 14 49 32 53
40 4 7 15 13 22 13 8 0 15 4 15 8 0 5 12 15 28 23 15 8 29 16 32 19 17 17 311
206 325 209 6 1 14 9 18 17 5 8 12 12 18 9 5 -4 9 -1 9 4 0 6 7 11 15 11 8 0
15 4 15 8 0 5 12 15 28 23 15 8 29 16 32 19 10 12 111 70 120 70 6 0 10 3 10
8 0 4 24 20 53 36 28 16 81 48 117 71 36 23 72 45 80 48 8 4 29 16 45 27 17
11 38 23 48 26 9 4 17 10 17 15 0 5 4 9 9 9 5 0 38 17 72 38 35 21 84 49 109
63 25 13 51 30 58 37 7 6 18 12 24 12 5 0 21 9 35 20 14 11 29 17 34 14 5 -3
9 -1 9 4 0 9 50 37 63 34 4 -1 7 3 7 8 0 6 7 10 15 10 8 0 15 5 15 11 0 5 4 8
9 5 5 -4 11 -3 13 2 1 4 41 27 88 52 47 24 99 51 117 61 17 10 34 15 37 12 3
-4 6 -1 6 5 0 7 8 12 18 12 10 0 28 7 40 16 18 13 21 19 11 30 -6 8 -17 14
-24 14 -7 0 -34 9 -60 21 -31 14 -59 19 -80 16 -31 -5 -116 -53 -123 -69 -2
-5 -8 -8 -14 -8 -11 0 -101 -61 -106 -72 -2 -5 -8 -8 -14 -8 -11 0 -101 -61
-106 -72 -2 -5 -8 -8 -13 -8 -11 0 -223 -142 -227 -152 -2 -5 -10 -8 -18 -8
-8 0 -14 -4 -14 -8 0 -5 -12 -15 -27 -23 -16 -8 -30 -16 -33 -19 -5 -5 -161
-107 -405 -265 -60 -39 -165 -107 -232 -151 -68 -43 -131 -83 -140 -89 -10 -5
-20 -13 -23 -16 -3 -4 -23 -16 -45 -28 -49 -26 -71 -39 -112 -68 -17 -13 -34
-23 -38 -23 -3 0 -33 -18 -66 -40 -32 -23 -59 -37 -59 -33 0 4 -4 3 -8 -3 -4
-6 -32 -25 -62 -43 -30 -17 -82 -49 -115 -71 -69 -44 -96 -50 -88 -20 3 11 9
20 14 20 5 0 8 4 6 8 -1 5 17 39 41 75 23 37 42 71 42 77 0 5 3 10 8 10 4 0
12 10 18 23 30 61 59 107 66 107 5 0 7 4 4 9 -3 5 1 14 9 21 8 7 15 17 15 22
0 5 13 29 30 53 16 24 30 48 30 54 0 6 5 11 10 11 6 0 10 7 10 15 0 8 5 15 12
15 6 0 9 3 6 6 -5 5 86 161 112 191 5 7 10 15 10 17 0 10 64 111 74 118 7 5 7
8 1 8 -5 0 -1 7 10 16 11 8 18 16 16 17 -3 1 2 13 11 27 94 150 138 223 138
229 0 14 61 56 83 57 12 0 68 4 124 8 88 7 102 11 106 27 9 34 -14 38 -149 25
-53 -5 -408 -17 -549 -18 -49 0 -320 14 -325 17 -3 2 -29 7 -56 10 -86 11
-118 23 -135 51 l-16 26 -20 -21 c-11 -11 -30 -41 -42 -66 -24 -47 -37 -60
-26 -24 5 14 2 25 -6 30 -10 6 -11 9 -1 9 8 0 12 21 12 71 0 53 -3 68 -12 63
-10 -6 -10 -5 -1 7 7 8 10 35 8 64 -6 79 -15 159 -21 174 -2 8 -7 30 -10 50
-16 116 -104 312 -189 426 -57 75 -61 79 -148 161 -54 50 -68 59 -90 55 -4 0
-6 5 -5 11 2 7 -5 12 -14 12 -10 -1 -15 2 -12 7 3 5 -8 14 -23 21 -15 7 -30
15 -33 19 -13 16 -112 59 -123 53 -7 -4 -9 -4 -5 1 9 10 -64 45 -99 47 -12 1
-23 5 -23 9 0 10 -90 30 -102 23 -6 -4 -8 -3 -5 3 8 12 -16 20 -55 19 -14 -1
-24 2 -22 6 5 7 -7 9 -63 12 -10 1 -20 4 -23 7 -3 4 -29 9 -59 12 -29 3 -56 8
-59 11 -3 3 -12 0 -20 -7 -11 -8 -14 -9 -9 0 5 7 1 11 -10 11 -25 -1 -146 13
-155 18 -4 2 -9 0 -13 -6 -4 -6 -13 -7 -23 -1 -9 4 -378 8 -819 9 l-802 0 0
-1973z m2284 1785 c-3 -5 -12 -10 -18 -10 -7 0 -6 4 3 10 19 12 23 12 15 0z
m275 -194 c0 -3 -4 -8 -10 -11 -5 -3 -10 -1 -10 4 0 6 5 11 10 11 6 0 10 -2
10 -4z m275 -446 c3 -5 1 -10 -4 -10 -6 0 -11 5 -11 10 0 6 2 10 4 10 3 0 8
-4 11 -10z m122 -5 c0 -8 -4 -12 -9 -9 -5 3 -6 10 -3 15 9 13 12 11 12 -6z
m-1417 -20 c78 -6 93 -9 170 -32 33 -9 60 -21 60 -25 0 -4 6 -8 13 -8 7 0 37
-20 66 -45 29 -25 49 -45 45 -45 -4 0 0 -8 8 -17 9 -10 22 -37 28 -60 7 -23
16 -40 20 -38 3 2 4 -9 2 -26 -2 -16 0 -29 5 -29 4 0 7 -17 6 -37 -1 -21 -3
-65 -4 -98 -1 -33 -8 -80 -16 -104 -7 -24 -10 -48 -6 -55 3 -6 3 -8 -2 -4 -4
4 -16 -8 -26 -27 -11 -19 -32 -48 -49 -63 -16 -16 -27 -32 -23 -36 4 -4 0 -4
-10 0 -9 3 -17 2 -17 -3 0 -5 -24 -17 -52 -28 -29 -10 -64 -22 -78 -28 -22 -8
-74 -15 -150 -20 -14 -1 -28 -6 -32 -12 -5 -6 -8 -6 -8 2 0 12 -17 12 -37 0
-7 -5 -13 -4 -13 0 0 5 -9 9 -20 10 -11 1 -20 -3 -20 -8 0 -6 -7 -6 -17 -1
-22 10 -234 9 -250 -1 -7 -5 -13 -4 -13 0 0 5 -9 9 -20 10 -11 1 -20 -3 -20
-10 0 -8 -3 -8 -11 0 -8 8 -11 126 -11 410 1 219 1 406 2 415 0 11 10 18 33
20 45 4 368 -1 447 -7z m417 -210 c0 -8 -4 -12 -9 -9 -5 3 -6 10 -3 15 9 13
12 11 12 -6z m1763 -410 c0 -16 -32 -79 -42 -83 -5 -2 -8 -12 -8 -22 0 -9 -7
-23 -15 -30 -8 -6 -14 -15 -13 -18 2 -10 -56 -126 -67 -134 -5 -4 -6 -8 -2 -8
5 0 -1 -13 -13 -30 -12 -16 -18 -30 -14 -30 4 0 0 -8 -9 -17 -8 -10 -16 -21
-17 -25 -8 -35 -14 -48 -23 -48 -6 0 -7 -3 -4 -7 4 -3 2 -11 -3 -18 -5 -7 -25
-41 -44 -76 -18 -35 -50 -95 -71 -134 -20 -38 -49 -92 -63 -120 -15 -27 -31
-53 -35 -56 -5 -3 -8 -9 -8 -13 1 -6 -22 -53 -46 -91 -7 -11 -17 -31 -23 -45
-6 -13 -15 -27 -19 -30 -4 -3 -15 -21 -24 -40 -10 -19 -31 -57 -48 -85 -16
-27 -32 -58 -36 -67 -3 -10 -9 -18 -14 -18 -5 0 -9 -7 -9 -15 0 -8 -4 -15 -10
-15 -5 0 -9 -3 -8 -7 3 -14 -25 -63 -35 -63 -6 0 -8 -3 -4 -6 3 -4 -9 -31 -28
-60 -19 -30 -35 -58 -35 -62 0 -5 -9 -18 -20 -30 -12 -12 -18 -22 -15 -22 7 0
-47 -83 -60 -92 -5 -4 -6 -8 -1 -8 5 0 3 -7 -4 -16 -12 -13 -16 -12 -36 12
-13 14 -26 35 -29 45 -4 11 -11 16 -17 13 -6 -4 -8 -2 -4 4 3 6 0 17 -8 24 -7
8 -17 24 -20 36 -4 12 -11 22 -16 22 -5 0 -12 9 -15 20 -4 11 -10 18 -14 16
-4 -3 -8 0 -8 7 0 13 -107 183 -129 205 -8 7 -14 20 -14 29 0 10 -6 13 -16 9
-8 -3 -12 -2 -9 4 5 9 -9 41 -30 66 -5 7 -23 35 -40 63 -16 28 -33 51 -37 51
-5 0 -8 5 -8 10 0 6 -12 28 -26 50 -24 35 -27 74 -7 68 9 -3 75 23 83 32 3 3
24 14 48 24 23 11 42 23 42 28 0 4 7 8 15 8 8 0 15 5 15 10 0 6 6 10 13 10 6
0 26 13 44 28 18 15 50 42 73 60 35 29 39 36 28 50 -11 15 -11 15 3 5 14 -11
22 -6 58 35 56 64 55 63 94 124 31 48 43 74 90 178 25 56 59 190 54 211 -3 10
-1 17 4 13 7 -4 14 42 10 69 -1 10 7 9 31 -4 11 -6 41 -11 67 -10 63 1 191 10
218 15 12 3 91 8 175 11 84 4 154 8 156 10 8 7 52 -9 52 -20z m-3360 -315 c0
-5 -2 -10 -4 -10 -3 0 -8 5 -11 10 -3 6 -1 10 4 10 6 0 11 -4 11 -10z m2285 1
c-9 -8 -36 -10 -30 -2 2 4 11 8 20 8 8 0 13 -3 10 -6z m-1611 -887 c3 -8 2
-12 -4 -9 -6 3 -10 10 -10 16 0 14 7 11 14 -7z m1526 -108 c0 -3 -4 -8 -10
-11 -5 -3 -10 -1 -10 4 0 6 5 11 10 11 6 0 10 -2 10 -4z m-1686 -284 c3 -5 -1
-9 -9 -9 -8 0 -12 4 -9 9 3 4 7 8 9 8 2 0 6 -4 9 -8z m83 -47 c0 -8 -4 -12 -9
-9 -5 3 -6 10 -3 15 9 13 12 11 12 -6z m-787 -269 c0 -2 -8 -10 -17 -17 -16
-13 -17 -12 -4 4 13 16 21 21 21 13z m2030 -320 c0 -3 -4 -8 -10 -11 -5 -3
-10 -1 -10 4 0 6 5 11 10 11 6 0 10 -2 10 -4z"/>
</g>
</svg>
