<?xml version="1.0" encoding="UTF-8"?>
<!DOCTYPE svg PUBLIC "-//W3C//DTD SVG 1.1//EN" "http://www.w3.org/Graphics/SVG/1.1/DTD/svg11.dtd">
<svg version="1.1" xmlns="http://www.w3.org/2000/svg" xmlns:xlink="http://www.w3.org/1999/xlink" x="0" y="0" width="304" height="119" viewBox="0, 0, 304, 119">
  <g id="Runar_Scene_Black_Copy" opacity="0.545">
    <g>
      <g>
        <path d="M52.299,62.442 L36.324,38.014 C44.185,35.14 48.073,29.308 48.073,20.856 C48.073,8.769 40.55,1.5 23.73,1.5 L1.5,1.5 L1.5,62.442 L16.714,62.442 L16.714,39.958 L20.095,39.958 C20.18,40.635 20.433,41.395 20.94,42.156 L34.211,62.442 z M32.52,20.856 C32.52,24.913 30.745,28.125 23.73,28.125 L16.714,28.125 L16.714,13.418 L23.73,13.418 C30.407,13.418 32.52,16.545 32.52,20.856 z" fill="#BCC7EA"/>
        <path d="M52.299,62.442 L36.324,38.014 C44.185,35.14 48.073,29.308 48.073,20.856 C48.073,8.769 40.55,1.5 23.73,1.5 L1.5,1.5 L1.5,62.442 L16.714,62.442 L16.714,39.958 L20.095,39.958 C20.18,40.635 20.433,41.395 20.94,42.156 L34.211,62.442 z M32.52,20.856 C32.52,24.913 30.745,28.125 23.73,28.125 L16.714,28.125 L16.714,13.418 L23.73,13.418 C30.407,13.418 32.52,16.545 32.52,20.856 z" fill-opacity="0" stroke="#788BC9" stroke-width="1.512"/>
      </g>
      <g>
        <path d="M110.113,36.746 L110.113,1.5 L94.73,1.5 L94.73,36.746 C94.73,47.565 90.504,51.115 82.896,51.115 C75.374,51.115 71.148,47.565 71.148,36.746 L71.148,1.5 L55.933,1.5 L55.933,36.746 C55.933,55.595 67.175,63.71 82.896,63.71 C98.618,63.71 110.113,55.595 110.113,36.746 z" fill="#BCC7EA"/>
        <path d="M110.113,36.746 L110.113,1.5 L94.73,1.5 L94.73,36.746 C94.73,47.565 90.504,51.115 82.896,51.115 C75.374,51.115 71.148,47.565 71.148,36.746 L71.148,1.5 L55.933,1.5 L55.933,36.746 C55.933,55.595 67.175,63.71 82.896,63.71 C98.618,63.71 110.113,55.595 110.113,36.746 z" fill-opacity="0" stroke="#788BC9" stroke-width="1.512"/>
      </g>
      <g>
        <path d="M172.745,62.442 L172.745,1.5 L157.785,1.5 L157.785,33.027 C157.785,34.549 158.038,35.648 158.461,37 L131.413,1.5 L118.396,1.5 L118.396,62.442 L133.357,62.442 L133.357,30.407 C133.357,29.224 133.019,28.04 132.681,26.942 L159.56,62.442 z" fill="#BCC7EA"/>
        <path d="M172.745,62.442 L172.745,1.5 L157.785,1.5 L157.785,33.027 C157.785,34.549 158.038,35.648 158.461,37 L131.413,1.5 L118.396,1.5 L118.396,62.442 L133.357,62.442 L133.357,30.407 C133.357,29.224 133.019,28.04 132.681,26.942 L159.56,62.442 z" fill-opacity="0" stroke="#788BC9" stroke-width="1.512"/>
      </g>
      <g>
        <path d="M238.42,62.442 L214.923,1.5 L201.314,1.5 L177.732,62.442 L192.947,62.442 L197.595,50.186 L217.797,50.186 L222.445,62.442 z M213.148,37.93 L202.16,37.93 L206.977,24.829 C207.231,24.152 207.569,23.138 207.738,22.208 C207.907,23.138 208.161,24.152 208.414,24.829 z" fill="#BCC7EA"/>
        <path d="M238.42,62.442 L214.923,1.5 L201.314,1.5 L177.732,62.442 L192.947,62.442 L197.595,50.186 L217.797,50.186 L222.445,62.442 z M213.148,37.93 L202.16,37.93 L206.977,24.829 C207.231,24.152 207.569,23.138 207.738,22.208 C207.907,23.138 208.161,24.152 208.414,24.829 z" fill-opacity="0" stroke="#788BC9" stroke-width="1.512"/>
      </g>
      <g>
        <path d="M294.121,62.442 L278.146,38.014 C286.007,35.14 289.895,29.308 289.895,20.856 C289.895,8.769 282.373,1.5 265.552,1.5 L243.323,1.5 L243.323,62.442 L258.537,62.442 L258.537,39.958 L261.918,39.958 C262.002,40.635 262.256,41.395 262.763,42.156 L276.033,62.442 z M274.343,20.856 C274.343,24.913 272.568,28.125 265.552,28.125 L258.537,28.125 L258.537,13.418 L265.552,13.418 C272.23,13.418 274.343,16.545 274.343,20.856 z" fill="#BCC7EA"/>
        <path d="M294.121,62.442 L278.146,38.014 C286.007,35.14 289.895,29.308 289.895,20.856 C289.895,8.769 282.373,1.5 265.552,1.5 L243.323,1.5 L243.323,62.442 L258.537,62.442 L258.537,39.958 L261.918,39.958 C262.002,40.635 262.256,41.395 262.763,42.156 L276.033,62.442 z M274.343,20.856 C274.343,24.913 272.568,28.125 265.552,28.125 L258.537,28.125 L258.537,13.418 L265.552,13.418 C272.23,13.418 274.343,16.545 274.343,20.856 z" fill-opacity="0" stroke="#788BC9" stroke-width="1.512"/>
      </g>
    </g>
  </g>
  <g id="Kristoffersen">
    <path d="M32.801,87.905 Q32.261,87.905 32.261,87.635 Q33.611,86.015 35.546,83.27 Q37.481,80.525 39.731,76.925 Q41.801,73.595 43.961,69.905 Q46.121,66.215 48.236,62.435 Q50.351,58.655 52.241,54.965 Q54.131,51.275 55.751,47.945 Q55.751,47.855 55.796,47.81 Q55.841,47.765 55.841,47.675 Q55.841,47.405 55.391,47.405 Q52.961,47.405 50.441,47.675 Q47.921,47.945 45.851,47.945 Q44.861,47.945 44.861,47.405 Q44.861,47.315 45.041,46.91 Q45.221,46.505 45.446,46.1 Q45.671,45.695 45.941,45.38 Q46.211,45.065 46.391,45.065 Q46.391,45.785 47.291,46.055 Q48.011,46.235 49.451,46.37 Q50.891,46.505 51.971,46.595 Q52.421,46.595 53.006,46.64 Q53.591,46.685 54.311,46.685 Q57.101,46.685 59.531,46.595 Q61.961,46.505 65.561,46.235 Q65.831,46.685 65.471,47.045 Q65.021,47.045 63.896,47.09 Q62.771,47.135 61.961,47.225 Q61.331,47.225 60.881,47.945 Q58.541,51.635 55.886,56.045 Q53.231,60.455 49.901,66.035 Q49.541,66.665 49.766,66.8 Q49.991,66.935 50.441,66.575 Q55.121,63.785 59.621,60.95 Q64.121,58.115 67.901,55.595 Q68.801,55.055 71.141,53.48 Q73.481,51.905 75.956,50.24 Q78.431,48.575 80.456,47.225 Q82.481,45.875 82.841,45.785 L83.201,45.785 Q83.651,46.055 84.236,46.235 Q84.821,46.415 85.451,46.595 Q85.541,46.865 85.361,47.045 Q84.731,47.225 83.471,47.855 Q82.211,48.485 79.916,49.745 Q77.621,51.005 74.201,53.03 Q70.781,55.055 65.831,58.115 Q63.131,59.825 60.161,61.76 Q57.191,63.695 54.311,65.765 Q53.951,66.035 53.951,66.305 Q57.641,71.255 62.591,77.33 Q67.541,83.405 75.191,90.515 Q77.981,93.125 80.231,94.835 Q82.481,96.545 84.596,97.535 Q86.711,98.525 88.736,98.975 Q90.761,99.425 93.191,99.425 Q96.881,99.425 100.346,98.48 Q103.811,97.535 105.971,96.005 Q106.691,95.555 106.691,96.185 Q106.691,96.365 106.331,96.635 Q103.811,98.255 99.806,99.29 Q95.801,100.325 91.481,100.325 Q88.781,100.325 85.721,99.695 Q82.661,99.065 79.241,97.445 Q75.821,95.825 72.131,92.99 Q68.441,90.155 64.481,85.745 Q60.791,81.605 56.921,76.925 Q53.051,72.245 49.721,67.745 Q49.451,67.295 49.316,67.34 Q49.181,67.385 48.731,68.015 Q46.121,72.335 43.961,76.25 Q41.801,80.165 39.641,84.035 Q39.281,84.575 39.056,85.25 Q38.831,85.925 38.741,86.285 Q38.291,86.195 37.796,86.15 Q37.301,86.105 36.941,86.105 Q35.681,86.105 34.511,86.735 Q33.341,87.365 32.801,87.905 z" fill="#2F4BAE"/>
    <path d="M115.691,54.245 Q115.691,55.145 114.926,56.18 Q114.161,57.215 112.541,57.215 Q111.461,57.035 111.461,56.045 Q111.461,55.235 112.271,54.11 Q113.081,52.985 114.341,52.985 Q115.061,52.985 115.376,53.39 Q115.691,53.795 115.691,54.245 z M117.941,74.675 Q117.491,75.125 115.511,77.06 Q113.531,78.995 110.786,81.11 Q108.041,83.225 104.981,84.935 Q101.921,86.645 99.311,86.645 Q96.971,86.645 96.971,84.305 Q96.971,82.685 98.411,79.805 Q99.041,78.545 99.851,77.105 Q100.661,75.665 101.516,74.18 Q102.371,72.695 103.181,71.345 Q103.991,69.995 104.621,69.005 Q104.801,68.735 104.441,68.6 Q104.081,68.465 103.721,68.645 Q100.661,70.085 98.096,71.075 Q95.531,72.065 93.641,72.065 Q92.201,72.065 91.391,71.705 Q90.581,71.345 90.041,70.94 Q89.501,70.535 89.186,70.175 Q88.871,69.815 88.421,69.815 Q87.791,69.815 86.036,71.525 Q84.281,73.235 82.211,77.015 Q80.951,79.175 79.601,81.74 Q78.251,84.305 77.261,86.015 Q76.901,86.645 76.271,86.645 Q76.001,86.645 75.371,85.88 Q74.741,85.115 74.741,84.395 Q74.741,83.495 76.046,81.425 Q77.351,79.355 79.061,76.655 Q80.591,74.225 81.716,72.11 Q82.841,69.995 82.841,68.735 Q82.841,68.105 82.571,67.655 Q82.301,67.205 81.491,67.205 Q80.501,67.205 79.331,67.835 Q78.161,68.465 76.991,69.185 Q76.631,69.005 76.631,68.735 Q77.891,67.835 79.376,67.07 Q80.861,66.305 82.391,66.305 Q83.921,66.305 84.551,66.89 Q85.181,67.475 85.181,69.005 Q85.181,69.635 84.911,70.67 Q84.641,71.705 84.281,72.425 Q84.101,72.695 84.146,72.785 Q84.191,72.875 84.371,72.695 Q86.801,69.455 88.871,67.88 Q90.941,66.305 91.391,66.305 Q91.751,66.305 91.931,67.025 Q92.381,68.375 93.641,69.32 Q94.901,70.265 96.431,70.265 Q98.771,70.265 101.066,69.23 Q103.361,68.195 105.971,66.665 Q106.511,66.305 107.456,66.08 Q108.401,65.855 108.581,65.855 Q109.211,65.855 109.211,66.305 Q109.211,66.575 109.031,66.935 Q106.961,70.085 104.846,73.505 Q102.731,76.925 101.471,79.985 Q101.201,80.615 101.066,81.38 Q100.931,82.145 100.931,82.595 Q100.931,84.665 102.911,84.665 Q103.721,84.665 105.296,83.945 Q106.871,83.225 108.806,81.875 Q110.741,80.525 112.991,78.545 Q115.241,76.565 117.491,74.135 Q117.851,73.775 118.166,73.955 Q118.481,74.135 117.941,74.675 z" fill="#2F4BAE"/>
    <path d="M156.731,48.305 Q156.731,48.665 156.191,49.52 Q155.651,50.375 155.201,50.375 Q155.021,50.375 154.751,50.285 Q154.481,50.195 154.031,49.745 Q152.771,48.575 149.981,47.45 Q147.191,46.325 143.411,46.325 Q140.711,46.325 138.056,47.225 Q135.401,48.125 133.286,49.97 Q131.171,51.815 129.911,54.515 Q128.651,57.215 128.651,60.815 Q128.651,65.225 130.811,67.835 Q130.811,68.285 130.046,68.87 Q129.281,69.455 128.921,69.455 Q128.381,69.455 127.571,68.6 Q126.761,67.745 124.961,67.745 Q123.431,67.745 122.396,68.78 Q121.361,69.815 121.361,71.975 Q121.361,72.965 121.676,73.865 Q121.991,74.765 122.306,75.62 Q122.621,76.475 122.936,77.285 Q123.251,78.095 123.251,78.905 Q124.241,77.645 125.231,76.34 Q126.221,75.035 127.121,73.865 Q127.481,73.595 128.201,73.235 Q128.921,72.875 130.226,72.38 Q131.531,71.885 133.601,71.165 Q135.671,70.445 138.731,69.545 Q139.451,68.285 140.846,65.9 Q142.241,63.515 143.771,60.95 Q145.301,58.385 146.831,56.135 Q148.361,53.885 149.351,52.805 Q149.711,52.535 150.971,52.04 Q152.231,51.545 152.861,51.545 Q153.041,51.545 153.041,51.725 Q153.041,51.905 152.501,52.445 Q151.871,53.165 150.611,54.875 Q149.351,56.585 147.821,58.835 Q146.291,61.085 144.671,63.74 Q143.051,66.395 141.611,69.005 Q144.761,68.555 148.586,68.15 Q152.411,67.745 156.191,67.565 Q156.191,67.925 156.011,68.105 Q154.481,68.195 152.591,68.33 Q150.701,68.465 148.676,68.69 Q146.651,68.915 144.716,69.185 Q142.781,69.455 141.161,69.815 Q140.621,70.895 139.856,72.65 Q139.091,74.405 138.416,76.295 Q137.741,78.185 137.246,79.985 Q136.751,81.785 136.751,83.045 Q136.751,84.575 137.291,85.655 Q137.831,86.735 140.171,86.735 Q141.611,86.735 143.456,86.24 Q145.301,85.745 146.561,84.755 Q146.741,84.575 147.191,84.755 Q147.641,84.935 146.921,85.385 Q145.031,86.465 142.781,87.14 Q140.531,87.815 138.191,87.815 Q136.571,87.815 134.906,86.96 Q133.241,86.105 133.241,83.675 Q133.241,82.685 133.466,81.605 Q133.691,80.525 134.231,78.995 Q134.771,77.465 135.806,75.35 Q136.841,73.235 138.461,70.265 Q132.521,72.065 128.426,74.585 Q124.331,77.105 123.071,80.435 Q122.801,81.245 122.171,82.325 Q121.541,83.405 120.461,84.35 Q119.381,85.295 117.806,85.97 Q116.231,86.645 114.071,86.645 Q112.811,86.645 111.641,85.88 Q110.471,85.115 110.471,83.045 Q110.471,82.505 110.651,81.92 Q110.831,81.335 111.191,81.065 Q111.461,80.885 112.271,80.615 Q113.081,80.345 113.351,80.345 Q113.801,80.525 113.441,80.885 Q113.081,81.245 113.081,82.235 Q113.081,83.585 113.936,84.53 Q114.791,85.475 116.771,85.475 Q118.301,85.475 119.561,84.44 Q120.821,83.405 120.821,81.515 Q120.821,80.795 120.641,79.94 Q120.461,79.085 120.011,78.365 Q118.571,75.755 118.571,73.865 Q118.571,71.885 119.876,69.95 Q121.181,68.015 124.331,66.755 Q125.411,66.305 126.671,66.305 Q127.391,66.305 127.886,66.485 Q128.381,66.665 128.471,66.665 Q128.741,66.665 128.561,66.395 Q128.111,65.315 127.931,64.01 Q127.751,62.705 127.751,61.715 Q127.751,58.835 128.831,55.775 Q129.911,52.715 132.161,50.195 Q134.411,47.675 137.921,46.055 Q141.431,44.435 146.291,44.435 Q148.631,44.435 151.286,45.2 Q153.941,45.965 155.651,46.955 Q156.731,47.585 156.731,48.305 z" fill="#2F4BAE"/>
    <path d="M178.511,70.805 Q176.981,72.875 174.776,74.54 Q172.571,76.205 169.781,76.205 Q168.251,76.205 166.766,75.44 Q165.281,74.675 164.381,73.145 Q163.751,74.585 162.761,76.43 Q161.771,78.275 160.421,80.12 Q159.071,81.965 157.406,83.495 Q155.741,85.025 153.851,86.015 Q152.231,86.735 151.151,86.735 Q147.911,86.735 147.911,83.855 Q147.911,82.235 148.496,80.525 Q149.081,78.815 149.981,77.195 Q150.881,75.575 151.916,74.135 Q152.951,72.695 153.851,71.795 Q155.741,69.725 158.171,68.285 Q160.601,66.845 163.391,66.575 Q163.571,65.855 163.931,64.91 Q164.291,63.965 165.191,63.785 Q165.641,63.695 166.091,63.605 Q166.541,63.515 166.901,63.335 Q167.171,63.155 167.441,63.29 Q167.711,63.425 167.531,63.785 Q166.901,64.775 166.586,66.305 Q166.271,67.835 166.271,69.635 Q166.271,72.155 167.216,73.775 Q168.161,75.395 170.501,75.395 Q172.841,75.395 174.731,73.865 Q176.621,72.335 177.881,70.535 Q178.061,70.085 178.466,70.265 Q178.871,70.445 178.511,70.805 z M163.661,71.435 Q163.481,70.625 163.391,69.545 Q163.301,68.465 163.301,67.475 Q163.301,67.025 162.941,67.025 Q161.951,67.025 160.871,67.7 Q159.791,68.375 158.711,69.5 Q157.631,70.625 156.551,72.065 Q155.471,73.505 154.571,75.035 Q153.401,77.015 152.456,79.31 Q151.511,81.605 151.601,83.675 Q151.601,84.305 151.826,84.845 Q152.051,85.385 152.861,85.385 Q154.391,85.385 156.191,83.675 Q157.991,81.965 159.611,79.67 Q161.231,77.375 162.356,75.035 Q163.481,72.695 163.661,71.435 z" fill="#2F4BAE"/>
    <path d="M233.951,43.535 Q233.951,44.345 233.681,45.425 Q233.501,45.605 233.321,45.425 Q233.321,44.075 231.746,42.95 Q230.171,41.825 226.391,41.825 Q223.961,41.825 221.396,42.455 Q218.831,43.085 215.996,45.155 Q213.161,47.225 209.966,51.05 Q206.771,54.875 203.261,61.265 Q202.271,63.065 201.326,64.82 Q200.381,66.575 199.391,68.375 Q201.191,68.285 203.531,68.195 Q205.871,68.105 207.311,67.925 Q207.941,67.925 207.806,68.285 Q207.671,68.645 207.221,68.645 Q205.511,68.825 203.171,69.005 Q200.831,69.185 198.941,69.275 Q195.161,76.295 191.921,82.55 Q188.681,88.805 184.901,94.475 Q181.571,99.425 177.611,103.25 Q173.651,107.075 169.331,109.145 Q166.811,110.405 164.831,110.9 Q162.851,111.395 160.871,111.395 Q159.341,111.395 157.766,110.945 Q156.191,110.495 155.291,109.505 Q152.141,112.925 148.181,115.4 Q144.221,117.875 140.171,117.875 Q136.661,117.875 134.366,115.94 Q132.071,114.005 131.351,110.675 Q131.351,110.225 131.576,110.18 Q131.801,110.135 131.891,110.585 Q132.071,111.575 132.701,112.61 Q133.331,113.645 134.366,114.59 Q135.401,115.535 136.886,116.12 Q138.371,116.705 140.261,116.705 Q142.691,116.705 144.851,115.985 Q147.011,115.265 148.811,114.14 Q150.611,113.015 152.141,111.62 Q153.671,110.225 154.841,108.965 Q154.481,108.245 154.481,107.885 Q154.481,107.525 154.751,106.985 Q155.021,106.445 155.336,105.95 Q155.651,105.455 156.011,105.095 Q156.371,104.735 156.641,104.735 Q156.731,105.725 157.181,106.355 Q159.161,103.835 160.961,100.91 Q162.761,97.985 164.651,94.655 Q168.341,88.175 171.356,81.515 Q174.371,74.855 176.891,69.995 L171.941,70.085 Q171.221,70.085 171.221,69.815 Q171.221,69.545 171.986,69.185 Q172.751,68.825 173.291,68.825 L177.431,68.825 Q179.231,65.495 180.941,62.795 Q182.651,60.095 184.361,57.89 Q186.071,55.685 187.871,53.84 Q189.671,51.995 191.651,50.465 Q193.541,48.935 195.791,47.9 Q198.041,46.865 200.381,46.865 Q201.011,46.865 201.731,46.955 Q202.451,47.045 203.081,47.27 Q203.711,47.495 204.116,47.99 Q204.521,48.485 204.521,49.295 Q204.521,49.925 204.251,50.33 Q203.981,50.735 203.891,51.005 Q203.891,51.455 203.531,51.455 Q203.351,51.455 203.081,51.095 Q202.811,50.735 202.226,50.33 Q201.641,49.925 200.651,49.61 Q199.661,49.295 198.041,49.295 Q195.071,49.295 192.191,51.185 Q190.931,52.085 189.491,53.93 Q188.051,55.775 186.791,57.845 Q185.711,59.645 184.136,62.525 Q182.561,65.405 180.761,68.915 Q181.841,68.915 183.731,68.87 Q185.621,68.825 187.781,68.78 Q189.941,68.735 192.101,68.69 Q194.261,68.645 195.791,68.555 Q199.571,61.445 204.071,55.46 Q208.571,49.475 215.501,44.525 Q218.021,42.725 220.226,41.645 Q222.431,40.565 224.141,40.025 Q225.851,39.485 226.976,39.35 Q228.101,39.215 228.461,39.215 Q230.531,39.215 232.241,39.98 Q233.951,40.745 233.951,43.535 z M195.251,69.455 Q192.101,69.635 188.006,69.77 Q183.911,69.905 180.311,69.995 Q177.161,76.385 173.876,82.685 Q170.591,88.985 166.721,94.925 Q164.921,97.805 162.581,100.91 Q160.241,104.015 157.631,106.985 Q158.711,108.335 160.331,108.92 Q161.951,109.505 163.841,109.505 Q166.631,109.505 169.061,108.425 Q173.381,106.625 176.801,102.665 Q180.221,98.705 182.921,93.665 Q186.161,87.725 189.086,81.56 Q192.011,75.395 195.251,69.455 z" fill="#2F4BAE"/>
    <path d="M227.111,75.395 Q225.581,77.285 223.466,79.31 Q221.351,81.335 218.876,83 Q216.401,84.665 213.746,85.7 Q211.091,86.735 208.481,86.735 Q204.251,86.735 204.251,82.955 Q204.251,80.435 205.556,77.51 Q206.861,74.585 208.931,72.11 Q211.001,69.635 213.476,67.97 Q215.951,66.305 218.201,66.305 Q219.461,66.305 219.956,66.755 Q220.451,67.205 220.451,67.925 Q220.451,69.005 219.776,70.265 Q219.101,71.525 217.751,72.65 Q216.401,73.775 214.331,74.54 Q212.261,75.305 209.381,75.305 Q208.931,76.115 208.391,77.87 Q207.851,79.625 207.851,81.425 Q207.851,85.115 211.181,85.115 Q213.251,85.115 215.456,84.125 Q217.661,83.135 219.731,81.65 Q221.801,80.165 223.556,78.41 Q225.311,76.655 226.481,75.125 Q226.661,74.945 226.886,75.035 Q227.111,75.125 227.111,75.395 z M217.661,68.375 Q217.661,67.205 216.491,67.205 Q215.591,67.205 214.646,67.88 Q213.701,68.555 212.801,69.635 Q211.901,70.715 211.091,71.975 Q210.281,73.235 209.741,74.405 Q209.921,74.495 210.371,74.54 Q210.821,74.585 211.091,74.585 Q213.701,74.585 215.681,72.74 Q217.661,70.895 217.661,68.375 z" fill="#2F4BAE"/>
    <path d="M242.861,67.745 Q242.321,68.375 241.736,69.275 Q241.151,70.175 240.971,70.625 Q240.881,70.895 240.611,70.895 Q240.521,70.895 240.341,70.625 Q240.161,70.355 239.846,70.04 Q239.531,69.725 238.991,69.455 Q238.451,69.185 237.461,69.185 Q236.291,69.185 234.851,69.995 Q233.411,70.805 232.331,71.795 Q230.621,73.235 229.316,74.945 Q228.011,76.655 226.841,78.5 Q225.671,80.345 224.591,82.28 Q223.511,84.215 222.251,86.195 Q222.161,86.465 221.711,86.465 Q221.531,86.465 220.946,85.925 Q220.361,85.385 220.361,85.115 Q220.361,84.575 220.991,83.495 Q222.431,80.975 223.916,78.41 Q225.401,75.845 226.706,73.595 Q228.011,71.345 229.001,69.68 Q229.991,68.015 230.351,67.205 Q230.801,66.395 230.981,66.395 Q231.161,66.395 231.881,66.845 Q232.601,67.295 232.601,68.105 Q232.601,68.375 232.286,69.005 Q231.971,69.635 231.566,70.31 Q231.161,70.985 230.801,71.615 Q230.441,72.245 230.261,72.515 Q229.991,72.965 230.171,72.965 Q230.351,72.965 230.621,72.695 Q231.521,71.795 232.826,70.715 Q234.131,69.635 235.571,68.69 Q237.011,67.745 238.406,67.115 Q239.801,66.485 240.881,66.485 Q241.691,66.485 242.276,66.89 Q242.861,67.295 242.861,67.745 z" fill="#2F4BAE"/>
    <path d="M252.491,69.635 Q252.221,70.085 252.041,69.725 Q251.501,68.555 249.791,68.555 Q248.531,68.555 247.271,69.275 Q246.011,69.995 246.011,71.435 Q246.011,72.155 246.461,72.875 Q246.911,73.595 247.721,74.765 Q248.441,75.845 249.071,76.925 Q249.701,78.005 249.701,79.175 Q249.701,81.515 248.621,83 Q247.541,84.485 246.056,85.385 Q244.571,86.285 243.041,86.6 Q241.511,86.915 240.611,86.915 Q235.121,86.915 234.581,83.225 Q235.031,82.955 235.616,82.55 Q236.201,82.145 236.471,81.785 Q236.651,81.785 236.741,82.145 Q237.191,83.765 238.451,84.935 Q239.711,86.105 241.421,86.105 Q242.141,86.105 243.131,85.97 Q244.121,85.835 244.976,85.34 Q245.831,84.845 246.461,83.945 Q247.091,83.045 247.091,81.515 Q247.091,80.345 246.641,79.355 Q246.191,78.365 245.651,77.555 Q245.111,76.655 244.571,75.755 Q244.031,74.855 244.031,73.775 Q244.031,72.695 244.796,71.435 Q245.561,70.175 246.731,69.14 Q247.901,68.105 249.296,67.385 Q250.691,66.665 252.041,66.665 Q253.481,66.665 253.481,67.565 Q253.211,68.015 252.941,68.6 Q252.671,69.185 252.491,69.635 z" fill="#2F4BAE"/>
    <path d="M278.321,75.395 Q276.791,77.285 274.676,79.31 Q272.561,81.335 270.086,83 Q267.611,84.665 264.956,85.7 Q262.301,86.735 259.691,86.735 Q255.461,86.735 255.461,82.955 Q255.461,80.435 256.766,77.51 Q258.071,74.585 260.141,72.11 Q262.211,69.635 264.686,67.97 Q267.161,66.305 269.411,66.305 Q270.671,66.305 271.166,66.755 Q271.661,67.205 271.661,67.925 Q271.661,69.005 270.986,70.265 Q270.311,71.525 268.961,72.65 Q267.611,73.775 265.541,74.54 Q263.471,75.305 260.591,75.305 Q260.141,76.115 259.601,77.87 Q259.061,79.625 259.061,81.425 Q259.061,85.115 262.391,85.115 Q264.461,85.115 266.666,84.125 Q268.871,83.135 270.941,81.65 Q273.011,80.165 274.766,78.41 Q276.521,76.655 277.691,75.125 Q277.871,74.945 278.096,75.035 Q278.321,75.125 278.321,75.395 z M268.871,68.375 Q268.871,67.205 267.701,67.205 Q266.801,67.205 265.856,67.88 Q264.911,68.555 264.011,69.635 Q263.111,70.715 262.301,71.975 Q261.491,73.235 260.951,74.405 Q261.131,74.495 261.581,74.54 Q262.031,74.585 262.301,74.585 Q264.911,74.585 266.891,72.74 Q268.871,70.895 268.871,68.375 z" fill="#2F4BAE"/>
    <path d="M302.351,74.495 Q300.731,76.745 298.616,79.04 Q296.501,81.335 294.116,83.135 Q291.731,84.935 289.256,86.105 Q286.781,87.275 284.441,87.275 Q283.361,87.275 282.461,86.96 Q281.561,86.645 281.561,85.385 Q281.561,84.125 282.461,82.19 Q283.361,80.255 284.576,78.095 Q285.791,75.935 287.096,73.685 Q288.401,71.435 289.211,69.545 Q289.391,69.095 289.256,68.78 Q289.121,68.465 288.671,68.735 Q287.681,69.365 286.331,70.445 Q284.981,71.525 283.586,72.74 Q282.191,73.955 280.886,75.215 Q279.581,76.475 278.771,77.465 Q277.331,79.715 276.296,81.605 Q275.261,83.495 273.731,85.835 Q273.371,86.375 273.191,86.375 Q272.741,86.375 272.426,85.385 Q272.111,84.395 272.111,84.125 Q272.111,83.315 273.236,81.92 Q274.361,80.525 275.711,78.815 Q277.151,75.935 278.681,72.74 Q280.211,69.545 281.291,67.025 Q281.561,66.575 282.101,66.575 Q282.641,66.575 283.091,67.025 Q283.541,67.475 283.541,68.015 Q283.541,68.375 282.236,70.49 Q280.931,72.605 279.671,75.395 Q281.381,73.865 283.406,72.155 Q285.431,70.445 287.276,69.005 Q289.121,67.565 290.516,66.62 Q291.911,65.675 292.451,65.675 Q292.811,65.675 293.126,66.08 Q293.441,66.485 293.441,66.845 Q293.441,67.205 292.991,67.925 Q292.001,69.365 290.561,71.615 Q289.121,73.865 287.816,76.25 Q286.511,78.635 285.611,80.795 Q284.711,82.955 284.711,84.215 Q284.711,85.295 285.161,85.7 Q285.611,86.105 286.601,86.105 Q288.131,86.105 290.201,84.935 Q292.271,83.765 294.476,82.01 Q296.681,80.255 298.661,78.095 Q300.641,75.935 301.901,73.955 Q302.081,73.685 302.441,73.82 Q302.801,73.955 302.351,74.495 z" fill="#2F4BAE"/>
  </g>
</svg>
