<?xml version="1.0" encoding="UTF-8"?>
<!DOCTYPE svg PUBLIC "-//W3C//DTD SVG 1.1//EN" "http://www.w3.org/Graphics/SVG/1.1/DTD/svg11.dtd">
<svg version="1.1" xmlns="http://www.w3.org/2000/svg" xmlns:xlink="http://www.w3.org/1999/xlink" x="0" y="0" width="600" height="95" viewBox="0, 0, 600, 95">
  <g id="Runar_Scene_Black_Copy" opacity="0.545">
    <g>
      <g>
        <path d="M54.299,62.442 L38.324,38.014 C46.184,35.14 50.073,29.308 50.073,20.856 C50.073,8.769 42.55,1.5 25.73,1.5 L3.5,1.5 L3.5,62.442 L18.714,62.442 L18.714,39.958 L22.095,39.958 C22.18,40.635 22.433,41.395 22.94,42.156 L36.211,62.442 z M34.52,20.856 C34.52,24.913 32.745,28.125 25.73,28.125 L18.714,28.125 L18.714,13.418 L25.73,13.418 C32.407,13.418 34.52,16.545 34.52,20.856 z" fill="#BCC7EA"/>
        <path d="M54.299,62.442 L38.324,38.014 C46.184,35.14 50.073,29.308 50.073,20.856 C50.073,8.769 42.55,1.5 25.73,1.5 L3.5,1.5 L3.5,62.442 L18.714,62.442 L18.714,39.958 L22.095,39.958 C22.18,40.635 22.433,41.395 22.94,42.156 L36.211,62.442 z M34.52,20.856 C34.52,24.913 32.745,28.125 25.73,28.125 L18.714,28.125 L18.714,13.418 L25.73,13.418 C32.407,13.418 34.52,16.545 34.52,20.856 z" fill-opacity="0" stroke="#788BC9" stroke-width="1.512"/>
      </g>
      <g>
        <path d="M112.113,36.746 L112.113,1.5 L96.73,1.5 L96.73,36.746 C96.73,47.565 92.504,51.115 84.896,51.115 C77.374,51.115 73.148,47.565 73.148,36.746 L73.148,1.5 L57.933,1.5 L57.933,36.746 C57.933,55.595 69.175,63.71 84.896,63.71 C100.618,63.71 112.113,55.595 112.113,36.746 z" fill="#BCC7EA"/>
        <path d="M112.113,36.746 L112.113,1.5 L96.73,1.5 L96.73,36.746 C96.73,47.565 92.504,51.115 84.896,51.115 C77.374,51.115 73.148,47.565 73.148,36.746 L73.148,1.5 L57.933,1.5 L57.933,36.746 C57.933,55.595 69.175,63.71 84.896,63.71 C100.618,63.71 112.113,55.595 112.113,36.746 z" fill-opacity="0" stroke="#788BC9" stroke-width="1.512"/>
      </g>
      <g>
        <path d="M174.745,62.442 L174.745,1.5 L159.784,1.5 L159.784,33.027 C159.784,34.549 160.038,35.648 160.461,37 L133.413,1.5 L120.396,1.5 L120.396,62.442 L135.357,62.442 L135.357,30.407 C135.357,29.224 135.019,28.04 134.681,26.942 L161.559,62.442 z" fill="#BCC7EA"/>
        <path d="M174.745,62.442 L174.745,1.5 L159.784,1.5 L159.784,33.027 C159.784,34.549 160.038,35.648 160.461,37 L133.413,1.5 L120.396,1.5 L120.396,62.442 L135.357,62.442 L135.357,30.407 C135.357,29.224 135.019,28.04 134.681,26.942 L161.559,62.442 z" fill-opacity="0" stroke="#788BC9" stroke-width="1.512"/>
      </g>
      <g>
        <path d="M240.42,62.442 L216.923,1.5 L203.314,1.5 L179.732,62.442 L194.946,62.442 L199.595,50.186 L219.796,50.186 L224.445,62.442 z M215.148,37.93 L204.159,37.93 L208.977,24.829 C209.231,24.152 209.569,23.138 209.738,22.208 C209.907,23.138 210.161,24.152 210.414,24.829 z" fill="#BCC7EA"/>
        <path d="M240.42,62.442 L216.923,1.5 L203.314,1.5 L179.732,62.442 L194.946,62.442 L199.595,50.186 L219.796,50.186 L224.445,62.442 z M215.148,37.93 L204.159,37.93 L208.977,24.829 C209.231,24.152 209.569,23.138 209.738,22.208 C209.907,23.138 210.161,24.152 210.414,24.829 z" fill-opacity="0" stroke="#788BC9" stroke-width="1.512"/>
      </g>
      <g>
        <path d="M296.121,62.442 L280.146,38.014 C288.007,35.14 291.895,29.308 291.895,20.856 C291.895,8.769 284.372,1.5 267.552,1.5 L245.322,1.5 L245.322,62.442 L260.537,62.442 L260.537,39.958 L263.918,39.958 C264.002,40.635 264.256,41.395 264.763,42.156 L278.033,62.442 z M276.343,20.856 C276.343,24.913 274.568,28.125 267.552,28.125 L260.537,28.125 L260.537,13.418 L267.552,13.418 C274.23,13.418 276.343,16.545 276.343,20.856 z" fill="#BCC7EA"/>
        <path d="M296.121,62.442 L280.146,38.014 C288.007,35.14 291.895,29.308 291.895,20.856 C291.895,8.769 284.372,1.5 267.552,1.5 L245.322,1.5 L245.322,62.442 L260.537,62.442 L260.537,39.958 L263.918,39.958 C264.002,40.635 264.256,41.395 264.763,42.156 L278.033,62.442 z M276.343,20.856 C276.343,24.913 274.568,28.125 267.552,28.125 L260.537,28.125 L260.537,13.418 L267.552,13.418 C274.23,13.418 276.343,16.545 276.343,20.856 z" fill-opacity="0" stroke="#788BC9" stroke-width="1.512"/>
      </g>
    </g>
  </g>
  <g id="Kristoffersen">
    <path d="M280.161,63.86 Q279.621,63.86 279.621,63.59 Q280.971,61.97 282.906,59.225 Q284.841,56.48 287.091,52.88 Q289.161,49.55 291.321,45.86 Q293.481,42.17 295.596,38.39 Q297.711,34.61 299.601,30.92 Q301.491,27.23 303.111,23.9 Q303.111,23.81 303.156,23.765 Q303.201,23.72 303.201,23.63 Q303.201,23.36 302.751,23.36 Q300.321,23.36 297.801,23.63 Q295.281,23.9 293.211,23.9 Q292.221,23.9 292.221,23.36 Q292.221,23.27 292.401,22.865 Q292.581,22.46 292.806,22.055 Q293.031,21.65 293.301,21.335 Q293.571,21.02 293.751,21.02 Q293.751,21.74 294.651,22.01 Q295.371,22.19 296.811,22.325 Q298.251,22.46 299.331,22.55 Q299.781,22.55 300.366,22.595 Q300.951,22.64 301.671,22.64 Q304.461,22.64 306.891,22.55 Q309.321,22.46 312.921,22.19 Q313.191,22.64 312.831,23 Q312.381,23 311.256,23.045 Q310.131,23.09 309.321,23.18 Q308.691,23.18 308.241,23.9 Q305.901,27.59 303.246,32 Q300.591,36.41 297.261,41.99 Q296.901,42.62 297.126,42.755 Q297.351,42.89 297.801,42.53 Q302.481,39.74 306.981,36.905 Q311.481,34.07 315.261,31.55 Q316.161,31.01 318.501,29.435 Q320.841,27.86 323.316,26.195 Q325.791,24.53 327.816,23.18 Q329.841,21.83 330.201,21.74 L330.561,21.74 Q331.011,22.01 331.596,22.19 Q332.181,22.37 332.811,22.55 Q332.901,22.82 332.721,23 Q332.091,23.18 330.831,23.81 Q329.571,24.44 327.276,25.7 Q324.981,26.96 321.561,28.985 Q318.141,31.01 313.191,34.07 Q310.491,35.78 307.521,37.715 Q304.551,39.65 301.671,41.72 Q301.311,41.99 301.311,42.26 Q305.001,47.21 309.951,53.285 Q314.901,59.36 322.551,66.47 Q325.341,69.08 327.591,70.79 Q329.841,72.5 331.956,73.49 Q334.071,74.48 336.096,74.93 Q338.121,75.38 340.551,75.38 Q344.241,75.38 347.706,74.435 Q351.171,73.49 353.331,71.96 Q354.051,71.51 354.051,72.14 Q354.051,72.32 353.691,72.59 Q351.171,74.21 347.166,75.245 Q343.161,76.28 338.841,76.28 Q336.141,76.28 333.081,75.65 Q330.021,75.02 326.601,73.4 Q323.181,71.78 319.491,68.945 Q315.801,66.11 311.841,61.7 Q308.151,57.56 304.281,52.88 Q300.411,48.2 297.081,43.7 Q296.811,43.25 296.676,43.295 Q296.541,43.34 296.091,43.97 Q293.481,48.29 291.321,52.205 Q289.161,56.12 287.001,59.99 Q286.641,60.53 286.416,61.205 Q286.191,61.88 286.101,62.24 Q285.651,62.15 285.156,62.105 Q284.661,62.06 284.301,62.06 Q283.041,62.06 281.871,62.69 Q280.701,63.32 280.161,63.86 z" fill="#2F4BAE"/>
    <path d="M363.051,30.2 Q363.051,31.1 362.286,32.135 Q361.521,33.17 359.901,33.17 Q358.821,32.99 358.821,32 Q358.821,31.19 359.631,30.065 Q360.441,28.94 361.701,28.94 Q362.421,28.94 362.736,29.345 Q363.051,29.75 363.051,30.2 z M365.301,50.63 Q364.851,51.08 362.871,53.015 Q360.891,54.95 358.146,57.065 Q355.401,59.18 352.341,60.89 Q349.281,62.6 346.671,62.6 Q344.331,62.6 344.331,60.26 Q344.331,58.64 345.771,55.76 Q346.401,54.5 347.211,53.06 Q348.021,51.62 348.876,50.135 Q349.731,48.65 350.541,47.3 Q351.351,45.95 351.981,44.96 Q352.161,44.69 351.801,44.555 Q351.441,44.42 351.081,44.6 Q348.021,46.04 345.456,47.03 Q342.891,48.02 341.001,48.02 Q339.561,48.02 338.751,47.66 Q337.941,47.3 337.401,46.895 Q336.861,46.49 336.546,46.13 Q336.231,45.77 335.781,45.77 Q335.151,45.77 333.396,47.48 Q331.641,49.19 329.571,52.97 Q328.311,55.13 326.961,57.695 Q325.611,60.26 324.621,61.97 Q324.261,62.6 323.631,62.6 Q323.361,62.6 322.731,61.835 Q322.101,61.07 322.101,60.35 Q322.101,59.45 323.406,57.38 Q324.711,55.31 326.421,52.61 Q327.951,50.18 329.076,48.065 Q330.201,45.95 330.201,44.69 Q330.201,44.06 329.931,43.61 Q329.661,43.16 328.851,43.16 Q327.861,43.16 326.691,43.79 Q325.521,44.42 324.351,45.14 Q323.991,44.96 323.991,44.69 Q325.251,43.79 326.736,43.025 Q328.221,42.26 329.751,42.26 Q331.281,42.26 331.911,42.845 Q332.541,43.43 332.541,44.96 Q332.541,45.59 332.271,46.625 Q332.001,47.66 331.641,48.38 Q331.461,48.65 331.506,48.74 Q331.551,48.83 331.731,48.65 Q334.161,45.41 336.231,43.835 Q338.301,42.26 338.751,42.26 Q339.111,42.26 339.291,42.98 Q339.741,44.33 341.001,45.275 Q342.261,46.22 343.791,46.22 Q346.131,46.22 348.426,45.185 Q350.721,44.15 353.331,42.62 Q353.871,42.26 354.816,42.035 Q355.761,41.81 355.941,41.81 Q356.571,41.81 356.571,42.26 Q356.571,42.53 356.391,42.89 Q354.321,46.04 352.206,49.46 Q350.091,52.88 348.831,55.94 Q348.561,56.57 348.426,57.335 Q348.291,58.1 348.291,58.55 Q348.291,60.62 350.271,60.62 Q351.081,60.62 352.656,59.9 Q354.231,59.18 356.166,57.83 Q358.101,56.48 360.351,54.5 Q362.601,52.52 364.851,50.09 Q365.211,49.73 365.526,49.91 Q365.841,50.09 365.301,50.63 z" fill="#2F4BAE"/>
    <path d="M404.091,24.26 Q404.091,24.62 403.551,25.475 Q403.011,26.33 402.561,26.33 Q402.381,26.33 402.111,26.24 Q401.841,26.15 401.391,25.7 Q400.131,24.53 397.341,23.405 Q394.551,22.28 390.771,22.28 Q388.071,22.28 385.416,23.18 Q382.761,24.08 380.646,25.925 Q378.531,27.77 377.271,30.47 Q376.011,33.17 376.011,36.77 Q376.011,41.18 378.171,43.79 Q378.171,44.24 377.406,44.825 Q376.641,45.41 376.281,45.41 Q375.741,45.41 374.931,44.555 Q374.121,43.7 372.321,43.7 Q370.791,43.7 369.756,44.735 Q368.721,45.77 368.721,47.93 Q368.721,48.92 369.036,49.82 Q369.351,50.72 369.666,51.575 Q369.981,52.43 370.296,53.24 Q370.611,54.05 370.611,54.86 Q371.601,53.6 372.591,52.295 Q373.581,50.99 374.481,49.82 Q374.841,49.55 375.561,49.19 Q376.281,48.83 377.586,48.335 Q378.891,47.84 380.961,47.12 Q383.031,46.4 386.091,45.5 Q386.811,44.24 388.206,41.855 Q389.601,39.47 391.131,36.905 Q392.661,34.34 394.191,32.09 Q395.721,29.84 396.711,28.76 Q397.071,28.49 398.331,27.995 Q399.591,27.5 400.221,27.5 Q400.401,27.5 400.401,27.68 Q400.401,27.86 399.861,28.4 Q399.231,29.12 397.971,30.83 Q396.711,32.54 395.181,34.79 Q393.651,37.04 392.031,39.695 Q390.411,42.35 388.971,44.96 Q392.121,44.51 395.946,44.105 Q399.771,43.7 403.551,43.52 Q403.551,43.88 403.371,44.06 Q401.841,44.15 399.951,44.285 Q398.061,44.42 396.036,44.645 Q394.011,44.87 392.076,45.14 Q390.141,45.41 388.521,45.77 Q387.981,46.85 387.216,48.605 Q386.451,50.36 385.776,52.25 Q385.101,54.14 384.606,55.94 Q384.111,57.74 384.111,59 Q384.111,60.53 384.651,61.61 Q385.191,62.69 387.531,62.69 Q388.971,62.69 390.816,62.195 Q392.661,61.7 393.921,60.71 Q394.101,60.53 394.551,60.71 Q395.001,60.89 394.281,61.34 Q392.391,62.42 390.141,63.095 Q387.891,63.77 385.551,63.77 Q383.931,63.77 382.266,62.915 Q380.601,62.06 380.601,59.63 Q380.601,58.64 380.826,57.56 Q381.051,56.48 381.591,54.95 Q382.131,53.42 383.166,51.305 Q384.201,49.19 385.821,46.22 Q379.881,48.02 375.786,50.54 Q371.691,53.06 370.431,56.39 Q370.161,57.2 369.531,58.28 Q368.901,59.36 367.821,60.305 Q366.741,61.25 365.166,61.925 Q363.591,62.6 361.431,62.6 Q360.171,62.6 359.001,61.835 Q357.831,61.07 357.831,59 Q357.831,58.46 358.011,57.875 Q358.191,57.29 358.551,57.02 Q358.821,56.84 359.631,56.57 Q360.441,56.3 360.711,56.3 Q361.161,56.48 360.801,56.84 Q360.441,57.2 360.441,58.19 Q360.441,59.54 361.296,60.485 Q362.151,61.43 364.131,61.43 Q365.661,61.43 366.921,60.395 Q368.181,59.36 368.181,57.47 Q368.181,56.75 368.001,55.895 Q367.821,55.04 367.371,54.32 Q365.931,51.71 365.931,49.82 Q365.931,47.84 367.236,45.905 Q368.541,43.97 371.691,42.71 Q372.771,42.26 374.031,42.26 Q374.751,42.26 375.246,42.44 Q375.741,42.62 375.831,42.62 Q376.101,42.62 375.921,42.35 Q375.471,41.27 375.291,39.965 Q375.111,38.66 375.111,37.67 Q375.111,34.79 376.191,31.73 Q377.271,28.67 379.521,26.15 Q381.771,23.63 385.281,22.01 Q388.791,20.39 393.651,20.39 Q395.991,20.39 398.646,21.155 Q401.301,21.92 403.011,22.91 Q404.091,23.54 404.091,24.26 z" fill="#2F4BAE"/>
    <path d="M425.871,46.76 Q424.341,48.83 422.136,50.495 Q419.931,52.16 417.141,52.16 Q415.611,52.16 414.126,51.395 Q412.641,50.63 411.741,49.1 Q411.111,50.54 410.121,52.385 Q409.131,54.23 407.781,56.075 Q406.431,57.92 404.766,59.45 Q403.101,60.98 401.211,61.97 Q399.591,62.69 398.511,62.69 Q395.271,62.69 395.271,59.81 Q395.271,58.19 395.856,56.48 Q396.441,54.77 397.341,53.15 Q398.241,51.53 399.276,50.09 Q400.311,48.65 401.211,47.75 Q403.101,45.68 405.531,44.24 Q407.961,42.8 410.751,42.53 Q410.931,41.81 411.291,40.865 Q411.651,39.92 412.551,39.74 Q413.001,39.65 413.451,39.56 Q413.901,39.47 414.261,39.29 Q414.531,39.11 414.801,39.245 Q415.071,39.38 414.891,39.74 Q414.261,40.73 413.946,42.26 Q413.631,43.79 413.631,45.59 Q413.631,48.11 414.576,49.73 Q415.521,51.35 417.861,51.35 Q420.201,51.35 422.091,49.82 Q423.981,48.29 425.241,46.49 Q425.421,46.04 425.826,46.22 Q426.231,46.4 425.871,46.76 z M411.021,47.39 Q410.841,46.58 410.751,45.5 Q410.661,44.42 410.661,43.43 Q410.661,42.98 410.301,42.98 Q409.311,42.98 408.231,43.655 Q407.151,44.33 406.071,45.455 Q404.991,46.58 403.911,48.02 Q402.831,49.46 401.931,50.99 Q400.761,52.97 399.816,55.265 Q398.871,57.56 398.961,59.63 Q398.961,60.26 399.186,60.8 Q399.411,61.34 400.221,61.34 Q401.751,61.34 403.551,59.63 Q405.351,57.92 406.971,55.625 Q408.591,53.33 409.716,50.99 Q410.841,48.65 411.021,47.39 z" fill="#2F4BAE"/>
    <path d="M481.311,19.49 Q481.311,20.3 481.041,21.38 Q480.861,21.56 480.681,21.38 Q480.681,20.03 479.106,18.905 Q477.531,17.78 473.751,17.78 Q471.321,17.78 468.756,18.41 Q466.191,19.04 463.356,21.11 Q460.521,23.18 457.326,27.005 Q454.131,30.83 450.621,37.22 Q449.631,39.02 448.686,40.775 Q447.741,42.53 446.751,44.33 Q448.551,44.24 450.891,44.15 Q453.231,44.06 454.671,43.88 Q455.301,43.88 455.166,44.24 Q455.031,44.6 454.581,44.6 Q452.871,44.78 450.531,44.96 Q448.191,45.14 446.301,45.23 Q442.521,52.25 439.281,58.505 Q436.041,64.76 432.261,70.43 Q428.931,75.38 424.971,79.205 Q421.011,83.03 416.691,85.1 Q414.171,86.36 412.191,86.855 Q410.211,87.35 408.231,87.35 Q406.701,87.35 405.126,86.9 Q403.551,86.45 402.651,85.46 Q399.501,88.88 395.541,91.355 Q391.581,93.83 387.531,93.83 Q384.021,93.83 381.726,91.895 Q379.431,89.96 378.711,86.63 Q378.711,86.18 378.936,86.135 Q379.161,86.09 379.251,86.54 Q379.431,87.53 380.061,88.565 Q380.691,89.6 381.726,90.545 Q382.761,91.49 384.246,92.075 Q385.731,92.66 387.621,92.66 Q390.051,92.66 392.211,91.94 Q394.371,91.22 396.171,90.095 Q397.971,88.97 399.501,87.575 Q401.031,86.18 402.201,84.92 Q401.841,84.2 401.841,83.84 Q401.841,83.48 402.111,82.94 Q402.381,82.4 402.696,81.905 Q403.011,81.41 403.371,81.05 Q403.731,80.69 404.001,80.69 Q404.091,81.68 404.541,82.31 Q406.521,79.79 408.321,76.865 Q410.121,73.94 412.011,70.61 Q415.701,64.13 418.716,57.47 Q421.731,50.81 424.251,45.95 L419.301,46.04 Q418.581,46.04 418.581,45.77 Q418.581,45.5 419.346,45.14 Q420.111,44.78 420.651,44.78 L424.791,44.78 Q426.591,41.45 428.301,38.75 Q430.011,36.05 431.721,33.845 Q433.431,31.64 435.231,29.795 Q437.031,27.95 439.011,26.42 Q440.901,24.89 443.151,23.855 Q445.401,22.82 447.741,22.82 Q448.371,22.82 449.091,22.91 Q449.811,23 450.441,23.225 Q451.071,23.45 451.476,23.945 Q451.881,24.44 451.881,25.25 Q451.881,25.88 451.611,26.285 Q451.341,26.69 451.251,26.96 Q451.251,27.41 450.891,27.41 Q450.711,27.41 450.441,27.05 Q450.171,26.69 449.586,26.285 Q449.001,25.88 448.011,25.565 Q447.021,25.25 445.401,25.25 Q442.431,25.25 439.551,27.14 Q438.291,28.04 436.851,29.885 Q435.411,31.73 434.151,33.8 Q433.071,35.6 431.496,38.48 Q429.921,41.36 428.121,44.87 Q429.201,44.87 431.091,44.825 Q432.981,44.78 435.141,44.735 Q437.301,44.69 439.461,44.645 Q441.621,44.6 443.151,44.51 Q446.931,37.4 451.431,31.415 Q455.931,25.43 462.861,20.48 Q465.381,18.68 467.586,17.6 Q469.791,16.52 471.501,15.98 Q473.211,15.44 474.336,15.305 Q475.461,15.17 475.821,15.17 Q477.891,15.17 479.601,15.935 Q481.311,16.7 481.311,19.49 z M442.611,45.41 Q439.461,45.59 435.366,45.725 Q431.271,45.86 427.671,45.95 Q424.521,52.34 421.236,58.64 Q417.951,64.94 414.081,70.88 Q412.281,73.76 409.941,76.865 Q407.601,79.97 404.991,82.94 Q406.071,84.29 407.691,84.875 Q409.311,85.46 411.201,85.46 Q413.991,85.46 416.421,84.38 Q420.741,82.58 424.161,78.62 Q427.581,74.66 430.281,69.62 Q433.521,63.68 436.446,57.515 Q439.371,51.35 442.611,45.41 z" fill="#2F4BAE"/>
    <path d="M474.471,51.35 Q472.941,53.24 470.826,55.265 Q468.711,57.29 466.236,58.955 Q463.761,60.62 461.106,61.655 Q458.451,62.69 455.841,62.69 Q451.611,62.69 451.611,58.91 Q451.611,56.39 452.916,53.465 Q454.221,50.54 456.291,48.065 Q458.361,45.59 460.836,43.925 Q463.311,42.26 465.561,42.26 Q466.821,42.26 467.316,42.71 Q467.811,43.16 467.811,43.88 Q467.811,44.96 467.136,46.22 Q466.461,47.48 465.111,48.605 Q463.761,49.73 461.691,50.495 Q459.621,51.26 456.741,51.26 Q456.291,52.07 455.751,53.825 Q455.211,55.58 455.211,57.38 Q455.211,61.07 458.541,61.07 Q460.611,61.07 462.816,60.08 Q465.021,59.09 467.091,57.605 Q469.161,56.12 470.916,54.365 Q472.671,52.61 473.841,51.08 Q474.021,50.9 474.246,50.99 Q474.471,51.08 474.471,51.35 z M465.021,44.33 Q465.021,43.16 463.851,43.16 Q462.951,43.16 462.006,43.835 Q461.061,44.51 460.161,45.59 Q459.261,46.67 458.451,47.93 Q457.641,49.19 457.101,50.36 Q457.281,50.45 457.731,50.495 Q458.181,50.54 458.451,50.54 Q461.061,50.54 463.041,48.695 Q465.021,46.85 465.021,44.33 z" fill="#2F4BAE"/>
    <path d="M490.221,43.7 Q489.681,44.33 489.096,45.23 Q488.511,46.13 488.331,46.58 Q488.241,46.85 487.971,46.85 Q487.881,46.85 487.701,46.58 Q487.521,46.31 487.206,45.995 Q486.891,45.68 486.351,45.41 Q485.811,45.14 484.821,45.14 Q483.651,45.14 482.211,45.95 Q480.771,46.76 479.691,47.75 Q477.981,49.19 476.676,50.9 Q475.371,52.61 474.201,54.455 Q473.031,56.3 471.951,58.235 Q470.871,60.17 469.611,62.15 Q469.521,62.42 469.071,62.42 Q468.891,62.42 468.306,61.88 Q467.721,61.34 467.721,61.07 Q467.721,60.53 468.351,59.45 Q469.791,56.93 471.276,54.365 Q472.761,51.8 474.066,49.55 Q475.371,47.3 476.361,45.635 Q477.351,43.97 477.711,43.16 Q478.161,42.35 478.341,42.35 Q478.521,42.35 479.241,42.8 Q479.961,43.25 479.961,44.06 Q479.961,44.33 479.646,44.96 Q479.331,45.59 478.926,46.265 Q478.521,46.94 478.161,47.57 Q477.801,48.2 477.621,48.47 Q477.351,48.92 477.531,48.92 Q477.711,48.92 477.981,48.65 Q478.881,47.75 480.186,46.67 Q481.491,45.59 482.931,44.645 Q484.371,43.7 485.766,43.07 Q487.161,42.44 488.241,42.44 Q489.051,42.44 489.636,42.845 Q490.221,43.25 490.221,43.7 z" fill="#2F4BAE"/>
    <path d="M499.851,45.59 Q499.581,46.04 499.401,45.68 Q498.861,44.51 497.151,44.51 Q495.891,44.51 494.631,45.23 Q493.371,45.95 493.371,47.39 Q493.371,48.11 493.821,48.83 Q494.271,49.55 495.081,50.72 Q495.801,51.8 496.431,52.88 Q497.061,53.96 497.061,55.13 Q497.061,57.47 495.981,58.955 Q494.901,60.44 493.416,61.34 Q491.931,62.24 490.401,62.555 Q488.871,62.87 487.971,62.87 Q482.481,62.87 481.941,59.18 Q482.391,58.91 482.976,58.505 Q483.561,58.1 483.831,57.74 Q484.011,57.74 484.101,58.1 Q484.551,59.72 485.811,60.89 Q487.071,62.06 488.781,62.06 Q489.501,62.06 490.491,61.925 Q491.481,61.79 492.336,61.295 Q493.191,60.8 493.821,59.9 Q494.451,59 494.451,57.47 Q494.451,56.3 494.001,55.31 Q493.551,54.32 493.011,53.51 Q492.471,52.61 491.931,51.71 Q491.391,50.81 491.391,49.73 Q491.391,48.65 492.156,47.39 Q492.921,46.13 494.091,45.095 Q495.261,44.06 496.656,43.34 Q498.051,42.62 499.401,42.62 Q500.841,42.62 500.841,43.52 Q500.571,43.97 500.301,44.555 Q500.031,45.14 499.851,45.59 z" fill="#2F4BAE"/>
    <path d="M525.681,51.35 Q524.151,53.24 522.036,55.265 Q519.921,57.29 517.446,58.955 Q514.971,60.62 512.316,61.655 Q509.661,62.69 507.051,62.69 Q502.821,62.69 502.821,58.91 Q502.821,56.39 504.126,53.465 Q505.431,50.54 507.501,48.065 Q509.571,45.59 512.046,43.925 Q514.521,42.26 516.771,42.26 Q518.031,42.26 518.526,42.71 Q519.021,43.16 519.021,43.88 Q519.021,44.96 518.346,46.22 Q517.671,47.48 516.321,48.605 Q514.971,49.73 512.901,50.495 Q510.831,51.26 507.951,51.26 Q507.501,52.07 506.961,53.825 Q506.421,55.58 506.421,57.38 Q506.421,61.07 509.751,61.07 Q511.821,61.07 514.026,60.08 Q516.231,59.09 518.301,57.605 Q520.371,56.12 522.126,54.365 Q523.881,52.61 525.051,51.08 Q525.231,50.9 525.456,50.99 Q525.681,51.08 525.681,51.35 z M516.231,44.33 Q516.231,43.16 515.061,43.16 Q514.161,43.16 513.216,43.835 Q512.271,44.51 511.371,45.59 Q510.471,46.67 509.661,47.93 Q508.851,49.19 508.311,50.36 Q508.491,50.45 508.941,50.495 Q509.391,50.54 509.661,50.54 Q512.271,50.54 514.251,48.695 Q516.231,46.85 516.231,44.33 z" fill="#2F4BAE"/>
    <path d="M549.711,50.45 Q548.091,52.7 545.976,54.995 Q543.861,57.29 541.476,59.09 Q539.091,60.89 536.616,62.06 Q534.141,63.23 531.801,63.23 Q530.721,63.23 529.821,62.915 Q528.921,62.6 528.921,61.34 Q528.921,60.08 529.821,58.145 Q530.721,56.21 531.936,54.05 Q533.151,51.89 534.456,49.64 Q535.761,47.39 536.571,45.5 Q536.751,45.05 536.616,44.735 Q536.481,44.42 536.031,44.69 Q535.041,45.32 533.691,46.4 Q532.341,47.48 530.946,48.695 Q529.551,49.91 528.246,51.17 Q526.941,52.43 526.131,53.42 Q524.691,55.67 523.656,57.56 Q522.621,59.45 521.091,61.79 Q520.731,62.33 520.551,62.33 Q520.101,62.33 519.786,61.34 Q519.471,60.35 519.471,60.08 Q519.471,59.27 520.596,57.875 Q521.721,56.48 523.071,54.77 Q524.511,51.89 526.041,48.695 Q527.571,45.5 528.651,42.98 Q528.921,42.53 529.461,42.53 Q530.001,42.53 530.451,42.98 Q530.901,43.43 530.901,43.97 Q530.901,44.33 529.596,46.445 Q528.291,48.56 527.031,51.35 Q528.741,49.82 530.766,48.11 Q532.791,46.4 534.636,44.96 Q536.481,43.52 537.876,42.575 Q539.271,41.63 539.811,41.63 Q540.171,41.63 540.486,42.035 Q540.801,42.44 540.801,42.8 Q540.801,43.16 540.351,43.88 Q539.361,45.32 537.921,47.57 Q536.481,49.82 535.176,52.205 Q533.871,54.59 532.971,56.75 Q532.071,58.91 532.071,60.17 Q532.071,61.25 532.521,61.655 Q532.971,62.06 533.961,62.06 Q535.491,62.06 537.561,60.89 Q539.631,59.72 541.836,57.965 Q544.041,56.21 546.021,54.05 Q548.001,51.89 549.261,49.91 Q549.441,49.64 549.801,49.775 Q550.161,49.91 549.711,50.45 z" fill="#2F4BAE"/>
  </g>
</svg>
